<?xml version="1.0" encoding="UTF-8"?>
<svg width="256px" height="290px" viewBox="0 0 256 290" xmlns="http://www.w3.org/2000/svg" xmlns:xlink="http://www.w3.org/1999/xlink" version="1.1">
 <g id="group">
  <path id="Путь" d="M128 0.048 L256 72.453 256 217.31 128 289.715 0 217.31 0 72.453 Z" fill="#ffffff" fill-opacity="1" stroke="none"/>
  <path id="Путь-1" d="M233.153 212.287 L132.251 269.428 132.251 224.99 195.14 190.358 Z M240.06 206.056 L240.06 86.654 203.158 107.955 203.158 184.755 Z M22.46 212.287 L123.363 269.38 123.363 224.942 60.474 190.358 Z M15.553 206.056 L15.553 86.654 52.456 107.955 52.456 184.755 Z M19.852 78.925 L123.363 20.383 123.363 63.372 57.045 99.84 56.513 100.13 Z M235.713 78.925 L132.251 20.383 132.251 63.372 198.521 99.888 199.052 100.178 Z" fill="#8ed6fb" fill-opacity="1" stroke="none"/>
  <path id="Путь-2" d="M123.363 214.847 L61.343 180.697 61.343 113.123 123.363 148.915 Z M132.251 214.847 L194.27 180.746 194.27 113.123 132.251 148.915 Z M65.497 105.298 L127.807 71.052 190.068 105.298 127.807 141.235 Z" fill="#1c78c0" fill-opacity="1" stroke="none"/>
 </g>
</svg>
